<svg fill="#FFFFFF" xmlns="http://www.w3.org/2000/svg" xmlns:xlink="http://www.w3.org/1999/xlink" version="1.1" x="0px" y="0px" viewBox="0 0 50 50" style="enable-background:new 0 0 50 50;" xml:space="preserve"><g><path d="M25,0L7.6,7v6.9h34.8V7L25,0z M28,7.9h-2v2c0,0.5-0.4,1-1,1s-1-0.4-1-1v-2h-2c-0.5,0-1-0.4-1-1s0.4-1,1-1h2V4   c0-0.5,0.4-1,1-1s1,0.4,1,1v2h2c0.5,0,1,0.4,1,1S28.5,7.9,28,7.9z"></path><rect x="20.7" y="38.7" width="8.6" height="11.3"></rect><path d="M10.2,50h8.6V38.7h-0.3c-0.5,0-1-0.4-1-1c0-0.5,0.4-1,1-1c5.4,0,6.6,0,13,0c0.5,0,1,0.4,1,1c0,0.5-0.4,1-1,1h-0.3V50h8.6   V15.9H10.2V50z M31.2,19.1h4.9V24h-4.9V19.1z M31.2,27.7h4.9v4.9h-4.9V27.7z M22.6,19.1h4.9V24h-4.9V19.1z M22.6,27.7h4.9v4.9h-4.9   V27.7z M13.9,19.1h4.9V24h-4.9V19.1z M13.9,27.7h4.9v4.9h-4.9V27.7z"></path></g></svg>