<svg fill="#FFFFFF" xmlns="http://www.w3.org/2000/svg" xmlns:xlink="http://www.w3.org/1999/xlink" version="1.1" x="0px" y="0px" viewBox="0 0 100 100" enable-background="new 0 0 100 100" xml:space="preserve"><path fill-rule="evenodd" clip-rule="evenodd" d="M73.765,24.15c0,0.2-0.066,0.383-0.2,0.55c-0.166,0.133-0.35,0.2-0.55,0.2  c-0.8,0-1.433,0.333-1.899,1c-0.134,0.233-0.351,0.35-0.65,0.35c-0.133,0-0.267-0.034-0.4-0.1c-0.433-0.3-0.5-0.667-0.199-1.1  c0.699-1.133,1.75-1.7,3.149-1.7c0.2,0,0.384,0.083,0.55,0.25C73.698,23.767,73.765,23.95,73.765,24.15z M72.265,22.2  c-1.166,0-2.166,0.417-3,1.25c-0.833,0.833-1.25,1.817-1.25,2.95c0,1.2,0.417,2.2,1.25,3c0.834,0.833,1.834,1.25,3,1.25  c1.167,0,2.167-0.417,3-1.25c0.8-0.8,1.2-1.8,1.2-3c0-1.133-0.4-2.117-1.2-2.95C74.432,22.617,73.432,22.2,72.265,22.2z   M77.415,21.25c1.434,1.4,2.149,3.117,2.149,5.15s-0.716,3.75-2.149,5.15c-1.434,1.433-3.15,2.15-5.15,2.15  c-0.133,0-0.267,0-0.399,0L67.915,45c0.333,0.267,0.667,0.566,1,0.9c1.467,1.4,2.2,3.117,2.2,5.15c0,2-0.733,3.717-2.2,5.15  c-1.4,1.434-3.117,2.15-5.15,2.15c-2,0-3.717-0.716-5.149-2.15c-1.434-1.433-2.15-3.15-2.15-5.15c0-1.833,0.583-3.4,1.75-4.7  l-8.05-8.3c-1.367,1.233-2.983,1.85-4.851,1.85c-0.666,0-1.3-0.083-1.899-0.25L39.465,48c1.066,1.267,1.6,2.783,1.6,4.55  c0,2.033-0.716,3.767-2.149,5.2c-1.4,1.433-3.117,2.15-5.15,2.15c-2,0-3.717-0.717-5.149-2.15c-1.434-1.434-2.15-3.167-2.15-5.2  c0-2,0.717-3.717,2.15-5.15c1.433-1.434,3.149-2.15,5.149-2.15c1.2,0,2.283,0.25,3.25,0.75l3.65-7.8c-0.2-0.167-0.367-0.333-0.5-0.5  c-1.434-1.4-2.15-3.117-2.15-5.15c0-2,0.717-3.717,2.15-5.15c1.434-1.434,3.149-2.15,5.149-2.15c2.034,0,3.75,0.716,5.15,2.15  c1.434,1.433,2.15,3.15,2.15,5.15c0,1.067-0.184,2.067-0.551,3l8.601,8.85c0.934-0.467,1.967-0.7,3.1-0.7  c0.434,0,0.867,0.05,1.3,0.15l3.851-10.95c-0.667-0.333-1.283-0.783-1.851-1.35c-1.433-1.4-2.149-3.117-2.149-5.15  s0.717-3.75,2.149-5.15c1.467-1.434,3.2-2.15,5.2-2.15S75.981,19.816,77.415,21.25z M85.465,19c2.634,3.5,4.5,7.4,5.6,11.7  c1.067,4.2,1.334,8.5,0.801,12.9c-0.533,4.567-1.934,8.85-4.2,12.85c-0.8,1.3-1.884,2.867-3.25,4.7c-1.634,2.033-2.634,3.35-3,3.95  c-0.767,1.167-1.434,2.267-2,3.3c-0.634,1.2-1.05,2.25-1.25,3.15l-0.05,0.15c-1.301,5.7-0.551,12.817,2.25,21.35  c0.166,0.433,0.116,0.867-0.15,1.3c-0.333,0.434-0.733,0.65-1.2,0.65h-44.45c-0.399,0-0.732-0.15-1-0.45  c-0.3-0.267-0.449-0.6-0.449-1c-0.067-2.7-0.101-4.15-0.101-4.35l-0.35-3.05l-5.3,0.65h-0.25l-0.5,0.1  c-0.667,0.1-1.167,0.15-1.5,0.15h-0.101c-0.2,0.033-0.533,0.05-1,0.05c-3.899,0-6.633-1.15-8.2-3.45c-1.866-2.4-2.05-5.667-0.55-9.8  l0.101-0.25v-0.05c-2.2-1.533-2.851-3.2-1.95-5l0.05-0.15l-0.3-0.6l-0.101-0.1c-0.533-1.167-0.566-2.533-0.1-4.1  c-2.833-1.233-4.45-2.517-4.85-3.85c-0.634-1.434-0.051-3.65,1.75-6.65l5.5-8.55c-0.2-0.433-0.384-0.95-0.551-1.55l-0.05-0.3  c-0.133-0.7-0.183-1.35-0.149-1.95c0-0.2,0.033-0.35,0.1-0.45c1.367-10.3,5.184-18.7,11.45-25.2l0.25-0.25  c2.8-2.867,6.167-5.117,10.1-6.75c3.4-1.4,7.317-2.316,11.75-2.75c1.467-0.167,3.067-0.283,4.8-0.35l4,0.05  c1.867,0.067,3.567,0.233,5.101,0.5c4.934,0.767,9.417,2.333,13.45,4.7C79.481,12.417,82.765,15.333,85.465,19z M74.165,12.75  c-3.767-2.167-7.917-3.617-12.45-4.35c-1.366-0.233-2.983-0.4-4.85-0.5h-3.7c-1.467,0.066-3.017,0.167-4.65,0.3  c-4.3,0.434-7.933,1.283-10.899,2.55c-3.601,1.533-6.7,3.65-9.301,6.35c-0.033,0.067-0.116,0.133-0.25,0.2  c-5.767,6.1-9.283,13.983-10.55,23.65l-0.05,0.25c0,0.367,0.05,0.7,0.15,1v0.2l0.35,0.8c0.267,0.1,0.45,0.317,0.55,0.65  c0.134,0.333,0.15,0.667,0.05,1c-0.066,0.333-0.199,0.617-0.399,0.85l-0.3,0.4c-3.233,4.967-5.084,7.817-5.551,8.55  c-0.767,1.267-1.267,2.3-1.5,3.1c-0.066,0.367-0.066,0.617,0,0.75l0.101,0.45l0.6,0.55c0.601,0.466,1.567,0.983,2.9,1.55l0.2,0.1  c0.433,0.133,0.85,0.35,1.25,0.65c0.6,0.567,0.717,1.183,0.35,1.85l-0.35,0.45c-0.334,0.867-0.417,1.583-0.25,2.15l0.149,0.25  c0.033,0.233,0.184,0.45,0.45,0.65c0.3,0.233,0.467,0.566,0.5,1c0,0.4-0.133,0.733-0.4,1l-0.1,0.15l-0.2,0.5  c-0.2,0.3,0.15,0.767,1.05,1.4l0.15,0.1c0.533,0.3,0.884,0.667,1.05,1.1c0.134,0.267,0.2,0.483,0.2,0.65c0,0.333-0.1,0.85-0.3,1.55  l-0.101,0.15c-1.199,3.133-1.166,5.517,0.101,7.15l0.05,0.1c1.066,1.633,3.3,2.367,6.7,2.2l0.2-0.05l1.149-0.1h0.05L26.365,84  l6.5-0.8c0.433,0,0.833,0.067,1.199,0.2c0.167,0.033,0.367,0.15,0.601,0.35c0.467,0.466,0.767,1.1,0.899,1.9  c0.067,0.167,0.067,0.333,0,0.5l0.351,2.7c0.033,0.4,0.05,1.483,0.05,3.25h41.1c-2.533-8.367-3.116-15.466-1.75-21.3l0.101-0.25  c0.3-1.133,0.783-2.3,1.45-3.5c0.399-0.833,1.083-2.017,2.05-3.55c0.934-1.367,2-2.75,3.2-4.15c1.467-1.9,2.449-3.333,2.949-4.3  c2.067-3.633,3.384-7.567,3.95-11.8c0.467-4.034,0.2-7.983-0.8-11.85c-0.967-3.9-2.65-7.467-5.05-10.7  C80.698,17.433,77.698,14.783,74.165,12.75z M63.765,46.8c-1.133,0-2.116,0.417-2.95,1.25c-0.833,0.833-1.25,1.833-1.25,3  s0.417,2.167,1.25,3c0.834,0.8,1.817,1.2,2.95,1.2c1.2,0,2.2-0.4,3-1.2c0.834-0.833,1.25-1.833,1.25-3s-0.416-2.167-1.25-3  C65.965,47.216,64.965,46.8,63.765,46.8z M45.314,28.35c-1.166,0-2.149,0.417-2.949,1.25c-0.867,0.833-1.301,1.817-1.301,2.95  c0,1.2,0.434,2.2,1.301,3c0.8,0.833,1.783,1.25,2.949,1.25c1.167,0,2.167-0.417,3-1.25c0.834-0.8,1.25-1.8,1.25-3  c0-1.133-0.416-2.117-1.25-2.95C47.481,28.767,46.481,28.35,45.314,28.35z M33.765,48.35c-1.133,0-2.116,0.417-2.95,1.25  c-0.833,0.833-1.25,1.817-1.25,2.95c0,1.2,0.417,2.2,1.25,3c0.834,0.833,1.817,1.25,2.95,1.25c1.2,0,2.2-0.417,3-1.25  c0.834-0.8,1.25-1.8,1.25-3c0-1.133-0.416-2.117-1.25-2.95C35.965,48.767,34.965,48.35,33.765,48.35z"></path></svg>