<svg fill="#FFFFFF" xmlns="http://www.w3.org/2000/svg" xmlns:xlink="http://www.w3.org/1999/xlink" version="1.1" x="0px" y="0px" viewBox="0 0 100 100" enable-background="new 0 0 100 100" xml:space="preserve"><g><path fill-rule="evenodd" clip-rule="evenodd" d="M76.519,65.503c-0.816-11.215-7.886-18.914-17.52-23.28   c-0.106-6.687,0.815-12.559,0.24-19.2c0.016-0.704,0.914-0.526,0.72-1.44c-1.179-1.028,0.22-5.015-0.72-6.96   c0.521,1.377,3.606-0.075,3.364-0.926c-0.015,0.073-0.018,0.075-0.005-0.034c0.004,0.011,0.002,0.022,0.005,0.034   c0.066-0.337,0.394-2.265,0.715-2.673c0.041,0.359-0.085,0.885,0.24,0.96c0.514-2.001-1.137-5.188-0.96-5.76   c-0.303-0.977-1.503-1.057-2.399-1.44c-1.921,0-3.841,0-5.761,0c-0.627,0.542-4.378,0.418-5.28,0c-0.4,0-0.8,0-1.2,0   c-0.771,0.43-3.592,0.807-4.56,0.96c0.026-0.453,0.793-0.167,0.72-0.72c-2.751,0.539-5.971-0.942-7.2,1.68   c-1.4,2.987,0.249,8.898,3.36,8.4c-0.117,6.93-0.036,18.83,0.24,27.12C29.8,46.109,23.29,55.06,22.759,68.383   c0,0.32,0,0.641,0,0.96c1.47,11.111,6.918,16.7,14.16,21.601c0.518,0.351,1.268,0.777,1.68,0.96   C57.924,100.471,77.92,84.75,76.519,65.503z M73.398,70.303c-1.233,12.747-15.288,24.607-31.2,19.44   c-3.263-1.857-6.228-4.012-9.12-6.24c0.024-0.951-0.46-1.384-0.48-1.68c-1.896-0.36-2.396-3.48-3.12-5.28   c-0.514,0.3,0.597,0.984,0.48,1.681c-0.718-0.636-1.019-1.593-1.44-1.921c0.002-1.163,0.432,0.661,0.96-0.239   c-0.532,0.166-0.606-0.849-0.72-0.48c0.247-2.451-1.098-3.001-1.44-5.28c0.982,1.644,0.069-2.927-0.48-4.079   c1.031,0.22,0.995-1.392,0.96-2.881c1.486-5.892,4.079-9.438,7.68-13.919c0.695,0.134-0.368,0.374-0.24,0.72   c1.312,0.088,1.259-1.067,2.16-1.68c2.519-1.713,6.647-1.441,7.44-5.04c0.691-3.14-0.237-7.089-0.24-11.28   c-0.002-3.629,0.873-7.851-0.24-10.56c0.145-3.6,1.509-9.288-1.2-11.28c-0.549,0.153-1.448,0.476-1.92,0   c2.983-1.895,8.167,0.39,11.76-0.96c1.504,0.956,4.512-0.718,6,0.72c-5.718-0.197-2.929,6.708-3.601,10.8   c-2.231-0.152-4.143,0.018-4.56,1.68c0.344,1.657,2.484,1.516,4.56,1.44c0.386,1.294,0.266,3.094,0.48,4.56   c-2.159,0.156-3.557-0.248-4.561,1.2c-0.113,2.033,3.061,0.78,4.32,1.44c-0.141,1.396,0.781,3.817,0,5.28   c-1.532-0.426-3.915-0.449-4.32,0.96c0.296,1.625,2.752,1.088,4.561,1.2c0.218,1.636-0.187,4.137,0.24,5.76   C66.277,48.805,74.69,56.957,73.398,70.303z"></path><path fill-rule="evenodd" clip-rule="evenodd" d="M61.879,66.224c-0.146-0.027-0.544-0.717-0.72-0.721   c-0.688-0.015-2.339,0.936-3.12,0.721c-0.788-0.218-0.332-1.384-1.44-0.96c-0.425,0.214-0.306,0.974-1.2,0.72   c0.022-0.379,0.612-0.188,0.48-0.72c-0.829,0.587-1.63-0.086-2.16,0.96c-0.312-0.563,0.122-0.538-0.479-0.96   c-0.614-0.062-1.508,0.948-0.961,0c-3.011,0.54-4.805-0.278-6.959,0.96c0.013-0.308,0.308-0.333,0.24-0.721   c-5.712,0.503-11.421-0.454-17.04,0.96c-0.411,1.613,0.5,3.036,0,4.561c2.144,7.756,6.051,14.206,14.4,16.56   c14.394,4.058,28.51-5.003,27.84-20.88C67.85,65.647,64.345,66.677,61.879,66.224z M68.839,68.623   c-1.04,12.233-12.435,21.196-25.68,16.32c0.194-0.967-1.865-1.233-2.64-1.44c-0.813-0.518,0.013-1.182-0.72-1.68   c-0.279,0.201-0.644,0.316-1.2,0.24c0.784-0.697-0.213-1.14-1.44-0.96c0.353-0.566,0.507-0.447,0.24-1.2   c-1.444-0.854-2.566-3.274-4.32-4.8c0.194,0.045,0.239,0.24,0.48,0.239c-0.231-2.697-1.84-3.405-1.44-6.239   c0.852,0.28,3.606,0.632,4.08-0.24c6.789,0.323,16.892,0.74,27.12-0.48C64.47,69.238,66.382,68.364,68.839,68.623z"></path></g></svg>