<svg fill="#FFFFFF" xmlns="http://www.w3.org/2000/svg" xmlns:xlink="http://www.w3.org/1999/xlink" version="1.1" x="0px" y="0px" viewBox="0 0 160 160" style="enable-background:new 0 0 160 160;" xml:space="preserve"><path d="M120.6,69c0-0.6,0-1.3,0-1.9c0.7-0.4,1.4-0.7,2.1-1.1h1.5l19.4-40.2L79,5L16.4,25.8L35.8,66h1.4c0.7,0.4,1.4,0.7,2.1,1.1  c0,0.6,0,1.3,0,1.9c0,13.3,5.5,25.7,14.8,34.1l-22.6,9.4V155h45.3v-19.2h7.5V155h44v-42.5l-22.6-9.4C115.1,94.7,120.6,82.2,120.6,69  z M80,20.5c3.9,0,8.3,5.2,8.3,12.7S83.9,45.9,80,45.9c-3.9,0-8.3-5.2-8.3-12.7S76.1,20.5,80,20.5z M102.3,66c-14.6,4-30.1,4-44.7,0  H102.3z M98.4,99.5c-5.4,4-11.8,6.2-18.4,6.2c-6.6,0-12.9-2.1-18.4-6.2c-8.9-6.6-14.3-17.4-14.7-29.2c21.3,8.2,44.9,8.2,66.2,0  C112.7,82.1,107.3,92.9,98.4,99.5z"></path></svg>