<svg fill="#FFFFFF" xmlns="http://www.w3.org/2000/svg" xmlns:xlink="http://www.w3.org/1999/xlink" version="1.1" x="0px" y="0px" viewBox="0 0 100 100" style="enable-background:new 0 0 100 100;" xml:space="preserve"><path d="M98,84.2L78.6,98.3l-29.2-8.1l-24.1,8.1L2.1,87.1L2,1.7l27.8,17.7l20.3-11l22.8,8.5C73.2,16.8,98,1.7,98,1.7V84.2z   M9.1,11.6L9,84l18.1,7l20.5-6.4l29.7,5.9L94,82.2l0-71.2L75.4,23.7L51.1,15L28,24.7C28,24.7,14.4,13.7,9.1,11.6  C9.1,13.8,9.1,11.6,9.1,11.6z"></path><path d="M69.1,27.6c-0.7,0.6-1.3,1.3-1.6,1.6c1.6,2.3,2.9,4.5,4.5,6.3c0.6,0.6,2.4,0.9,3.1,0.4c2.4-1.7,4.6-3.8,6.9-5.8  c2.5-2.1,3.8-1.9,5.1,1.2c0.4,0.9,0.5,1.9,1,2.7c0.4,0.7,1,1.3,1.9,2.5c-7.6-1-6.3,4.6-7.1,8.8c0.4,0.1,0.9,0.1,1.3,0.3  c1.5,0.8,4,1.4,4.3,2.6c0.8,2.6,0.5,5.4-2.1,7.5c-1.9,1.6-3.3,3.7-5.4,6.1c-1.1-0.8-2.8-2.1-4.6-3.5c-3.9,3-2.7,7.7-4.9,11.7  c-0.4-1.1-1.2-2.3-1.2-3.4c-0.1-2.3,0.3-4.6,0.3-6.9c0-2.7,0-5.5-2.8-7.3c-0.4,0.4-0.8,0.7-0.8,0.9c1.2,3.2-1.3,5.3-2.2,7.9  c-1.9,4.9-3.7,9.8-5.7,14.7c-0.6,1.5-1.3,2.8-2.5,4.2c-3.4-7,1.5-15.4-4.5-21.8c-0.1,0-0.3-0.1-0.5,0c-2.1,0.5-4.4,2.8-6.3-0.3  c-1.9-3.1-1.3-8.7,1.6-11c2.3-1.8,4.5-4.5,8.1-3.1c0.4,0.2,1-0.3,2.3-0.8c-1.4-2.2-2.5-4.2-3.7-6.1c-0.3,0.1-0.7,0.3-1,0.4  c-0.3,1-0.5,2.1-0.9,3.6c-0.5-1-0.7-1.8-1.2-2.2c-0.6-0.6-1.4-1-2.1-1.5c-0.3,0.8-0.9,1.7-0.8,2.5c0.1,1.9,0.1,3.5-2.3,3.6  c-2.5,0.1-2.8-1.8-2.8-3.7c0-2.4,0.4-4.5,2.9-5.7c0.6-0.3,0.8-1.4,1.2-2.1c-0.3-0.2-0.6-0.5-0.9-0.7c0.7-0.3,1.7-0.5,2.1-1  c2.8-4.5,6.4-3.7,10.3-2c0.9,0.4,1.8,0.7,2.6,1.1c2.1,0.9,4,1.5,5.6-1c0.5-0.7,1.7-0.9,2.6-1.3C68.9,27.1,69,27.4,69.1,27.6z"></path><path d="M19.5,34.1c-2.7,0-4.8,0-7.7,0c0.5-1.2,0.6-2.5,1.3-3.2c3.1-3.2,7.4-4,11.4-1.6c2.6,1.6,4.7,1.6,7.1-0.1  c0.9-0.7,2.1-0.8,3.2-1.3c0.3,0.6,0.6,0.9,0.6,1.2c0.2,4.5,0.7,9.1,0.5,13.6c-0.1,2-1.2,4.4-2.6,5.9c-2,2.2-3,1.5-4.1-1.4  c-0.4-1.2-2.4-1.9-3.9-2.4c0.7,6.9,2.5,8.7,9.8,9.9c3.6,0.6,6.3,2.1,7.1,6c0.8,3.7-0.6,5.5-4.5,5.9c-1.7,5.7-3.4,11.4-5.1,17.3  c-3-1.8-4-5-4.2-8.5c-0.2-3.3-1.1-6.2-3.8-8c-0.8-1.4-1.8-2.7-2.3-4.1c-0.4-0.9-0.6-2.3-0.1-2.9c1-1.2,2.6-1.7,3.6-2.8  c0.8-0.9,1.9-2.2,1.7-3.2c-0.2-1-1.6-2.3-2.6-2.4c-2.6-0.1-4.2-1.3-5.3-3.6c-0.3-0.6-1-1-1.6-1.4c-3.9-2.5-4.2-3.3-1.9-7.4  C17.1,38,18.1,36.4,19.5,34.1z"></path><path d="M83,67.6c0.8,3.3,2.2,1.5,3.7,0.1c0.4,3.4,0.7,6.4,0.9,8.4c-2.7,1.2-4.8,2-6.7,3c-2.4,1.3-3.5,0.8-3.7-2  C77.1,73.5,79,70.3,83,67.6z"></path><path d="M44.2,23.7c-1.2,2.8-2,5-3.1,6.8C40,32.4,38.7,31.6,38,30C36.6,26.9,38.8,24.3,44.2,23.7z"></path></svg>