<svg xmlns:dc="http://purl.org/dc/elements/1.1/" xmlns:cc="http://creativecommons.org/ns#" xmlns:rdf="http://www.w3.org/1999/02/22-rdf-syntax-ns#" xmlns:svg="http://www.w3.org/2000/svg" xmlns="http://www.w3.org/2000/svg" xmlns:sodipodi="http://sodipodi.sourceforge.net/DTD/sodipodi-0.dtd" xmlns:inkscape="http://www.inkscape.org/namespaces/inkscape" version="1.1" viewBox="0 0 32 32" x="0px" y="0px"><g transform="translate(0,-1020.3622)"><path d="m 22.505963,1024.3622 a 0.50353275,0.50353275 0 0 0 -0.350072,0.1474 l -1.423918,1.4239 a 0.50353275,0.50353275 0 0 0 0,0.712 l 2.137836,2.1358 -2.137836,2.1359 -2.135863,-2.1359 a 0.50353275,0.50353275 0 0 0 -0.03736,-0.035 l -0.674586,-0.6766 a 0.50353275,0.50353275 0 0 0 -0.359909,-0.1534 0.50353275,0.50353275 0 0 0 -0.352045,0.8653 l 0.355972,0.356 -8.1874899,8.1875 a 0.50353275,0.50353275 0 0 0 -0.1435629,0.4249 l 0.3894033,2.8911 -1.3137668,1.3137 a 0.50353275,0.50353275 0 0 0 0,0.712 l 0.3540085,0.354 -4.271736,4.2717 -0.3559721,1.0699 1.0699001,-0.3579 4.2697623,-4.2699 0.3579458,0.3561 a 0.50353275,0.50353275 0 0 0 0.7119547,0 l 1.31574,-1.3158 2.889123,0.3894 a 0.50353275,0.50353275 0 0 0 0.422845,-0.1416 l 0.875204,-0.8771 a 0.50353275,0.50353275 0 1 0 -0.711965,-0.712 l -0.698189,0.7002 -2.877321,-0.3894 -1.006965,-1.0051 -0.389414,-2.8773 0.180942,-0.1809 1.775954,1.776 a 0.50353272,0.50353272 0 1 0 0.711954,-0.712 l -1.775954,-1.7759 0.711955,-0.712 1.063999,1.064 a 0.50353275,0.50353275 0 1 0 0.711964,-0.7119 l -1.064009,-1.0641 0.711964,-0.7119 1.775954,1.776 a 0.50353272,0.50353272 0 1 0 0.711954,-0.7121 l -1.775953,-1.7758 0.711954,-0.7121 1.063999,1.0641 a 0.50353275,0.50353275 0 1 0 0.711955,-0.712 l -1.064,-1.064 0.711955,-0.7119 1.77989,1.7798 0.711955,0.712 1.779891,1.7799 -0.886995,0.889 a 0.50353275,0.50353275 0 1 0 0.711954,0.7119 l 3.024832,-3.0248 0.355972,0.3559 a 0.50353275,0.50353275 0 1 0 0.711954,-0.7119 l -0.688361,-0.6865 a 0.50353275,0.50353275 0 0 0 -0.02356,-0.025 l -2.135863,-2.1359 2.135863,-2.1358 2.135873,2.1358 a 0.50353275,0.50353275 0 0 0 0.711954,0 l 1.423909,-1.4239 a 0.50353275,0.50353275 0 0 0 0,-0.7119 l -4.985654,-4.9838 a 0.50353275,0.50353275 0 0 0 -0.361883,-0.1474 z m 0.006,1.2154 4.2737,4.2717 -0.711954,0.7119 -1.779891,-1.7799 -0.711954,-0.7119 -1.781855,-1.7799 z m -4.271725,4.2717 1.77988,1.7799 -1.423908,1.4239 -1.779891,-1.7799 z m 2.491835,2.4918 1.77989,1.78 -1.424049,1.4238 -1.779891,-1.7798 z m -2.271572,6.0261 a 0.50353275,0.50353275 0 0 0 -0.002,0 0.50353275,0.50353275 0 0 0 -0.346144,0.1534 l -1.292137,1.2921 a 0.50353275,0.50353275 0 1 0 0.711954,0.7119 l 1.292137,-1.2921 a 0.50353275,0.50353275 0 0 0 -0.363846,-0.8673 z m -8.407753,3.2314 0.711954,0.7119 -0.711954,0.7119 -0.711965,-0.7119 z" style="color:#000000;font-style:normal;font-variant:normal;font-weight:normal;font-stretch:normal;font-size:medium;line-height:normal;font-family:sans-serif;font-variant-ligatures:normal;font-variant-position:normal;font-variant-caps:normal;font-variant-numeric:normal;font-variant-alternates:normal;font-feature-settings:normal;text-indent:0;text-align:start;text-decoration:none;text-decoration-line:none;text-decoration-style:solid;text-decoration-color:#000000;letter-spacing:normal;word-spacing:normal;text-transform:none;writing-mode:lr-tb;direction:ltr;text-orientation:mixed;dominant-baseline:auto;baseline-shift:baseline;text-anchor:start;white-space:normal;shape-padding:0;clip-rule:nonzero;display:inline;overflow:visible;visibility:visible;opacity:1;isolation:auto;mix-blend-mode:normal;color-interpolation:sRGB;color-interpolation-filters:linearRGB;solid-color:#000000;solid-opacity:1;vector-effect:none;fill:#000000;fill-opacity:1;fill-rule:nonzero;stroke:none;stroke-width:1;stroke-linecap:round;stroke-linejoin:round;stroke-miterlimit:4;stroke-dasharray:none;stroke-dashoffset:0;stroke-opacity:1;paint-order:fill markers stroke;color-rendering:auto;image-rendering:auto;shape-rendering:auto;text-rendering:auto;enable-background:accumulate"></path></g><style type="text/css">
	.st0{fill:#030102;}
</style></svg>