<svg fill="#FFFFFF" xmlns="http://www.w3.org/2000/svg" xmlns:xlink="http://www.w3.org/1999/xlink" version="1.1" x="0px" y="0px" viewBox="0 0 100 100" enable-background="new 0 0 100 100" xml:space="preserve"><g><path d="M44.156,68.071c-3.853-1.187-9.574-1.869-15.699-1.869c-6.12,0-11.841,0.681-15.695,1.868   c-1.011,0.311-1.577,1.383-1.266,2.394c0.312,1.011,1.382,1.578,2.394,1.266c3.453-1.063,8.898-1.698,14.567-1.698   c5.673,0,11.12,0.635,14.57,1.699c0.188,0.058,0.378,0.086,0.565,0.086c0.818,0,1.576-0.529,1.829-1.352   C45.734,69.455,45.167,68.382,44.156,68.071z"></path><path d="M44.156,58.489c-3.853-1.187-9.574-1.869-15.699-1.869c-6.12,0-11.841,0.681-15.695,1.868   c-1.011,0.311-1.577,1.383-1.266,2.394c0.312,1.01,1.382,1.577,2.394,1.266c3.453-1.063,8.898-1.698,14.567-1.698   c5.673,0,11.12,0.635,14.57,1.699c0.188,0.058,0.378,0.086,0.565,0.086c0.818,0,1.576-0.529,1.829-1.352   C45.734,59.873,45.167,58.8,44.156,58.489z"></path><path d="M44.156,48.906c-3.853-1.187-9.575-1.869-15.698-1.869c-6.121,0-11.842,0.681-15.695,1.867   c-1.011,0.311-1.577,1.383-1.266,2.394c0.312,1.011,1.382,1.577,2.394,1.267c3.452-1.063,8.897-1.698,14.567-1.698   c5.672,0,11.119,0.635,14.571,1.699c0.188,0.058,0.378,0.085,0.564,0.085c0.818,0,1.576-0.528,1.829-1.351   C45.734,50.289,45.166,49.218,44.156,48.906z"></path><path d="M44.156,39.324c-3.853-1.188-9.574-1.869-15.699-1.869c-6.12,0-11.841,0.681-15.695,1.868   c-1.011,0.311-1.577,1.383-1.266,2.394c0.312,1.01,1.382,1.576,2.394,1.266c3.453-1.064,8.898-1.698,14.567-1.698   c5.673,0,11.12,0.635,14.57,1.699c0.188,0.058,0.378,0.086,0.565,0.086c0.818,0,1.576-0.529,1.829-1.351   C45.734,40.708,45.167,39.636,44.156,39.324z"></path><path d="M44.156,29.742c-3.853-1.188-9.574-1.869-15.699-1.869c-6.122,0-11.842,0.681-15.695,1.868   c-1.011,0.311-1.578,1.383-1.266,2.394c0.311,1.01,1.381,1.578,2.394,1.266c3.451-1.063,8.897-1.698,14.567-1.698   c5.673,0,11.12,0.635,14.57,1.699c0.188,0.058,0.378,0.086,0.565,0.086c0.818,0,1.576-0.529,1.829-1.351   C45.734,31.126,45.167,30.054,44.156,29.742z"></path><path d="M87.239,68.071c-3.853-1.187-9.575-1.869-15.699-1.869c-6.12,0-11.84,0.681-15.695,1.868   c-1.011,0.311-1.577,1.383-1.266,2.394s1.382,1.575,2.394,1.266c3.453-1.063,8.898-1.698,14.567-1.698   c5.672,0,11.119,0.635,14.571,1.699c0.188,0.058,0.378,0.086,0.565,0.086c0.818,0,1.575-0.529,1.829-1.352   C88.817,69.454,88.25,68.382,87.239,68.071z"></path><path d="M87.239,58.489c-3.853-1.187-9.575-1.869-15.699-1.869c-6.12,0-11.84,0.681-15.695,1.868   c-1.011,0.311-1.577,1.383-1.266,2.394s1.382,1.576,2.394,1.266c3.453-1.063,8.898-1.698,14.567-1.698   c5.672,0,11.119,0.635,14.571,1.699c0.188,0.058,0.378,0.086,0.565,0.086c0.818,0,1.575-0.529,1.829-1.352   C88.817,59.872,88.25,58.8,87.239,58.489z"></path><path d="M87.239,48.906c-3.854-1.187-9.576-1.869-15.699-1.869c-6.121,0-11.841,0.681-15.695,1.867   c-1.011,0.311-1.577,1.383-1.266,2.394c0.311,1.011,1.382,1.577,2.394,1.267c3.452-1.063,8.898-1.698,14.567-1.698   c5.672,0,11.119,0.635,14.571,1.699c0.188,0.058,0.378,0.085,0.565,0.085c0.818,0,1.575-0.528,1.829-1.351   C88.817,50.289,88.25,49.218,87.239,48.906z"></path><path d="M87.239,39.324c-3.853-1.188-9.575-1.869-15.699-1.869c-6.12,0-11.84,0.681-15.695,1.868   c-1.011,0.311-1.577,1.383-1.266,2.394s1.382,1.575,2.394,1.266c3.453-1.064,8.898-1.698,14.567-1.698   c5.672,0,11.119,0.635,14.571,1.699c0.188,0.058,0.378,0.086,0.565,0.086c0.818,0,1.575-0.529,1.829-1.352   C88.817,40.708,88.25,39.636,87.239,39.324z"></path><path d="M55.846,29.742c-1.011,0.311-1.577,1.383-1.266,2.394c0.311,1.011,1.382,1.575,2.394,1.266   c3.451-1.063,8.898-1.698,14.567-1.698c5.672,0,11.119,0.635,14.571,1.699c0.188,0.058,0.378,0.086,0.565,0.086   c0.818,0,1.575-0.529,1.829-1.352c0.311-1.01-0.255-2.082-1.266-2.394c-3.853-1.188-9.575-1.869-15.699-1.869   C65.419,27.873,59.699,28.554,55.846,29.742z"></path><path d="M71.543,17.932c-1.957,0-16.3,0.13-21.543,3.804c-5.243-3.674-19.586-3.804-21.543-3.804C26.056,17.932,5,18.126,5,24.827   v57.69c0,1.057,0.857,1.915,1.915,1.915c0.982,0,1.791-0.74,1.902-1.691c0.986-1.156,7.705-3.288,19.641-3.288   s18.655,2.133,19.641,3.288c0.003,0.029,0.013,0.057,0.018,0.085c0.009,0.055,0.021,0.109,0.034,0.163   c0.017,0.065,0.036,0.129,0.059,0.191c0.019,0.051,0.039,0.1,0.062,0.149c0.028,0.06,0.06,0.118,0.095,0.175   c0.027,0.045,0.054,0.089,0.085,0.132c0.039,0.054,0.083,0.105,0.128,0.155c0.034,0.038,0.068,0.077,0.105,0.112   c0.05,0.047,0.104,0.089,0.158,0.131c0.04,0.03,0.077,0.062,0.119,0.089c0.06,0.039,0.125,0.071,0.19,0.103   c0.042,0.021,0.083,0.045,0.127,0.063c0.074,0.03,0.152,0.051,0.23,0.072c0.04,0.011,0.077,0.026,0.118,0.034   c0.121,0.024,0.245,0.038,0.373,0.038c0.128,0,0.252-0.014,0.373-0.038c0.041-0.008,0.08-0.024,0.12-0.035   c0.077-0.021,0.155-0.041,0.228-0.071c0.045-0.018,0.086-0.043,0.13-0.065c0.064-0.032,0.127-0.063,0.187-0.101   c0.043-0.028,0.082-0.06,0.122-0.091c0.054-0.041,0.107-0.082,0.156-0.129c0.038-0.036,0.072-0.075,0.107-0.114   c0.044-0.049,0.087-0.099,0.126-0.153c0.031-0.043,0.058-0.088,0.086-0.133c0.034-0.057,0.066-0.114,0.094-0.174   c0.023-0.049,0.043-0.099,0.062-0.15c0.023-0.062,0.043-0.126,0.059-0.191c0.014-0.054,0.025-0.107,0.034-0.163   c0.005-0.029,0.015-0.056,0.018-0.085c0.986-1.156,7.705-3.288,19.641-3.288s18.654,2.133,19.641,3.288   c0.11,0.952,0.92,1.691,1.902,1.691c1.057,0,1.915-0.857,1.915-1.915v-57.69C95,18.126,73.944,17.932,71.543,17.932z M8.83,78.386   v-53.35c1.031-1.159,7.744-3.273,19.628-3.273s18.597,2.115,19.628,3.273v53.35c-6.189-2.66-17.875-2.763-19.628-2.763   S15.019,75.726,8.83,78.386z M91.17,78.386c-6.189-2.66-17.875-2.763-19.628-2.763c-1.752,0-13.439,0.103-19.628,2.763v-53.35   c1.031-1.159,7.744-3.273,19.628-3.273s18.596,2.115,19.628,3.273V78.386z"></path></g></svg>