<svg fill="#FFFFFF" xmlns="http://www.w3.org/2000/svg" xmlns:xlink="http://www.w3.org/1999/xlink" version="1.1" x="0px" y="0px" viewBox="-247 370.9 100 100" style="enable-background:new -247 370.9 100 100;" xml:space="preserve"><g><path d="M-200.7,403.9c2.2,0,4-1.8,4-4s-1.8-4-4-4s-4,1.8-4,4S-202.9,403.9-200.7,403.9z"></path><path d="M-177.9,458.3c-2.8,0-18.5,0.5-20.5-0.7c-2-1.2-6.1-5.9-6.6-11.5c-0.2-1.9-0.4-3.2-0.8-4.2l1.6-2.1h27.4v-3.3h-29.1v0.1   l-2.2,3.1c-0.3-0.1-0.8-0.1-1.2-0.1c-3.9,2.4-7.1,6.8-7.1,6.8c-1.5,2.2-2.4,3.9-4.4,8.1c-2.7,6-3.3,11.4-3.3,11.4h49.4   c0,0,0-2.9,0-4.1C-174.7,460.6-175.1,458.3-177.9,458.3z"></path><polygon points="-191.3,377.4 -189.1,377.4 -189.1,376.3 -202.1,376.3 -202.1,377.4 -199.9,377.4  "></polygon><path d="M-210.8,438.2c-1.3-1.7-2.7-4.9-2.7-10.8c-0.1-10.8,7.9-16,13.6-19.4v1.5h1.1v3.4h6.5v-3.5h1.1V392h-1.1v-6.5h1.1v-7.3   h-8.7v7.3h1.1v6.5h-1.1v1.9c3,0.4,5.3,2.9,5.3,6c0,3.3-2.7,6-6,6c-1.8,0-3.4-0.8-4.5-2c-2.8,1.4-6,3.4-8.3,6.3   c-4.9,6.2-6.9,13.6-6.9,18.7c0,4.3,0.5,10.5,2.8,15.5C-216.3,442.8-214.1,440.3-210.8,438.2z"></path><polygon points="-198.9,413.8 -201,413.8 -201,417 -197.3,417 -196.6,424.3 -193.7,424.3 -193,417 -188.7,417 -188,422.6    -185.1,422.6 -184.4,417 -180.4,417 -180.4,413.8 -192.3,413.8  "></polygon></g></svg>