<svg fill="#FFFFFF" xmlns="http://www.w3.org/2000/svg" xmlns:xlink="http://www.w3.org/1999/xlink" version="1.1" x="0px" y="0px" viewBox="0 0 100 100" enable-background="new 0 0 100 100" xml:space="preserve"><g><path fill="#FFFFFF" d="M1355.15,100.38c0-5.709-4.645-10.354-10.354-10.354s-10.354,4.645-10.354,10.354   c0,5.71,4.645,10.355,10.354,10.355S1355.15,106.09,1355.15,100.38z M1344.797,109.535c-5.049,0-9.154-4.106-9.154-9.155   c0-5.047,4.105-9.153,9.154-9.153c5.047,0,9.152,4.106,9.152,9.153C1353.949,105.429,1349.844,109.535,1344.797,109.535z"></path><path fill="#FFFFFF" d="M1423.516,129.803c-0.004-0.005-0.01-0.013-0.014-0.019c-0.002-0.003-0.002-0.005-0.002-0.008   c-8.053-12.019-18.357-22.005-30.625-29.685c0,0,0-0.001-0.002-0.001c-6.977-5.015-15.174-7.768-23.738-8.016   c0.412-10.617-0.336-21.297-2.24-31.753c-0.227-1.24-0.922-2.318-1.959-3.035c-1.037-0.716-2.287-0.984-3.531-0.761   c-1.238,0.227-2.316,0.921-3.035,1.957c-0.717,1.037-0.986,2.291-0.762,3.531c1.891,10.366,2.57,20.956,2.021,31.478   c0,0.001,0,0.001,0,0.002l-1.086,15.755l0,0c-0.896,10.488-3.023,20.882-6.316,30.893c-0.812,2.472,0.539,5.144,3.01,5.957   c0.488,0.162,0.984,0.238,1.473,0.238c1.98,0,3.832-1.262,4.484-3.245c3.262-9.909,5.447-20.194,6.512-30.575   c4.695-0.11,9.307,1.366,13.029,4.238c8.537,7.494,15.441,16.445,20.523,26.602c0.65,1.297,1.766,2.263,3.141,2.721   c0.562,0.188,1.143,0.28,1.719,0.28c0.832,0,1.66-0.193,2.426-0.576c1.297-0.648,2.264-1.764,2.723-3.14   c0.457-1.376,0.352-2.849-0.297-4.145c-3.877-7.746-8.762-14.953-14.525-21.421c-0.131-0.149-0.137-0.368-0.012-0.521   c0.143-0.173,0.398-0.198,0.566-0.057c0.002,0.001,0.002,0.001,0.004,0.003c6.754,5.529,12.629,12.02,17.457,19.286   c1.043,1.571,2.77,2.424,4.529,2.424c1.031,0,2.074-0.293,2.994-0.906C1424.475,135.649,1425.156,132.272,1423.516,129.803z    M1421.32,136.306c-1.945,1.29-4.574,0.758-5.863-1.182c-4.893-7.367-10.846-13.945-17.695-19.551c0-0.001,0-0.002-0.002-0.003   c-0.68-0.56-1.693-0.461-2.256,0.224c-0.502,0.615-0.482,1.489,0.045,2.081c5.691,6.388,10.518,13.507,14.346,21.158   c0.506,1.011,0.588,2.157,0.232,3.229c-0.357,1.072-1.109,1.94-2.121,2.446c-1.01,0.505-2.156,0.589-3.229,0.23   c-1.07-0.356-1.941-1.108-2.445-2.119c-5.156-10.302-12.16-19.379-20.818-26.979c-0.004-0.005-0.012-0.006-0.018-0.011   c-0.004-0.003-0.006-0.009-0.012-0.013c-4.086-3.159-9.17-4.76-14.346-4.496c-0.041,0.002-0.076,0.019-0.115,0.029   c-0.014,0.003-0.027,0.006-0.041,0.01c-0.064,0.021-0.121,0.052-0.174,0.093c-0.008,0.006-0.018,0.013-0.025,0.021   c-0.043,0.036-0.078,0.078-0.109,0.126c-0.016,0.022-0.029,0.044-0.043,0.068c-0.018,0.04-0.029,0.079-0.037,0.123   c-0.006,0.024-0.021,0.044-0.023,0.07c-1.035,10.477-3.227,20.858-6.516,30.855c-0.607,1.845-2.602,2.848-4.443,2.243   c-1.844-0.607-2.85-2.601-2.246-4.443c3.326-10.103,5.469-20.592,6.373-31.175c0-0.001,0-0.004,0-0.005s0.002-0.004,0.002-0.006   l1.092-15.834c0.002-0.008-0.004-0.015-0.004-0.021c0.549-10.589-0.137-21.246-2.039-31.677c-0.168-0.925,0.033-1.858,0.568-2.632   s1.338-1.292,2.264-1.459c0.924-0.175,1.857,0.032,2.633,0.565c0.771,0.536,1.291,1.34,1.459,2.265   c1.926,10.562,2.668,21.355,2.205,32.08c0,0.003,0,0.006,0,0.009s0,0.005,0,0.007c0,0.032,0.012,0.059,0.016,0.09   c0.008,0.047,0.01,0.095,0.025,0.138c0.014,0.032,0.035,0.057,0.053,0.085c0.023,0.037,0.041,0.077,0.07,0.108   c0.025,0.027,0.059,0.044,0.09,0.065c0.033,0.023,0.061,0.051,0.096,0.067s0.074,0.019,0.111,0.028   c0.037,0.009,0.072,0.025,0.113,0.027c0.006,0,0.01,0,0.016,0c8.541,0.128,16.725,2.833,23.664,7.822   c0.006,0.004,0.012,0.002,0.016,0.005c0.008,0.005,0.012,0.012,0.018,0.017c12.137,7.592,22.328,17.465,30.293,29.351   c0.002,0.001,0.002,0.004,0.002,0.005C1423.791,132.386,1423.262,135.015,1421.32,136.306z"></path></g><g><path fill="#FFFFFF" d="M50.74,39.262c5.708,0,10.352-4.645,10.352-10.354c0-5.71-4.645-10.354-10.352-10.354   c-5.709,0-10.354,4.645-10.354,10.354C40.385,34.617,45.031,39.262,50.74,39.262z M50.74,19.753c5.045,0,9.153,4.107,9.153,9.155   c0,5.047-4.107,9.153-9.153,9.153c-5.049,0-9.154-4.106-9.154-9.153C41.585,23.86,45.691,19.753,50.74,19.753z"></path><path fill="#FFFFFF" d="M93.514,40.869c-0.311-1.222-1.078-2.25-2.162-2.894c-1.086-0.645-2.355-0.827-3.574-0.517   c-10.215,2.597-20.738,4.003-31.273,4.178H44.976c-10.536-0.175-21.059-1.581-31.274-4.178c-2.513-0.635-5.095,0.889-5.737,3.41   c-0.642,2.521,0.889,5.095,3.41,5.736c9.412,2.395,19.097,3.839,28.793,4.311v18.612c-3.102,0.852-6.185,1.849-9.166,2.987   C31,72.517,31,72.519,30.999,72.519c-1.353,0.517-2.424,1.529-3.016,2.851c-0.593,1.323-0.635,2.799-0.118,4.153   c0.798,2.09,2.836,3.493,5.072,3.493h15.426h20.178c2.994,0,5.43-2.435,5.43-5.428c0-2.236-1.404-4.275-3.492-5.072   c-2.986-1.139-6.068-2.138-9.168-2.987V50.916c9.697-0.472,19.383-1.916,28.793-4.311C92.623,45.965,94.154,43.392,93.514,40.869z    M89.809,45.443c-9.518,2.42-19.316,3.869-29.125,4.308c-0.035,0.001-0.062,0.017-0.094,0.023c-0.043,0.008-0.086,0.013-0.125,0.03   c-0.033,0.016-0.061,0.04-0.092,0.062c-0.031,0.023-0.066,0.042-0.096,0.071c-0.023,0.025-0.039,0.059-0.059,0.088   c-0.023,0.035-0.049,0.066-0.064,0.105c-0.014,0.032-0.014,0.069-0.021,0.105c-0.008,0.037-0.023,0.073-0.023,0.113v19.626   c0,0.015,0.008,0.026,0.01,0.041c0.002,0.041,0.012,0.078,0.023,0.118c0.01,0.036,0.02,0.072,0.035,0.106   c0.018,0.033,0.041,0.061,0.064,0.092s0.045,0.062,0.074,0.088c0.027,0.023,0.059,0.041,0.09,0.06   c0.035,0.022,0.072,0.042,0.113,0.056c0.012,0.005,0.021,0.015,0.035,0.018c3.209,0.866,6.404,1.903,9.494,3.082   c1.629,0.621,2.723,2.209,2.723,3.952c0,2.331-1.898,4.228-4.23,4.228H56.477c1.248-0.994,2.066-2.511,2.066-4.228   c0-1.718-0.818-3.233-2.066-4.229h4.996c0.33,0,0.6-0.269,0.6-0.6c0-0.332-0.27-0.601-0.6-0.601h-13.11h-8.357   c-0.332,0-0.6,0.269-0.6,0.601c0,0.331,0.268,0.6,0.6,0.6h8.357h4.75c2.332,0,4.229,1.897,4.229,4.229   c0,2.331-1.896,4.228-4.229,4.228h-4.75H32.937c-1.742,0-3.33-1.093-3.952-2.721c-0.401-1.056-0.369-2.204,0.093-3.235   s1.297-1.821,2.352-2.224c0,0,0,0,0.002,0c3.085-1.179,6.279-2.216,9.492-3.082c0.013-0.003,0.021-0.013,0.035-0.018   c0.041-0.014,0.077-0.033,0.113-0.056c0.03-0.019,0.061-0.036,0.089-0.06c0.029-0.026,0.052-0.057,0.075-0.088   s0.046-0.059,0.063-0.092c0.017-0.034,0.025-0.07,0.035-0.106c0.012-0.04,0.021-0.077,0.024-0.118   c0.001-0.015,0.008-0.026,0.008-0.041V50.35c0-0.04-0.015-0.076-0.023-0.113c-0.007-0.036-0.007-0.073-0.021-0.105   c-0.016-0.039-0.041-0.07-0.063-0.105c-0.02-0.029-0.035-0.062-0.06-0.088c-0.028-0.029-0.063-0.048-0.097-0.071   c-0.03-0.021-0.057-0.046-0.09-0.062c-0.04-0.018-0.083-0.022-0.125-0.03c-0.032-0.007-0.061-0.022-0.094-0.023   c-9.808-0.438-19.605-1.888-29.125-4.308c-1.88-0.479-3.02-2.399-2.543-4.277c0.479-1.881,2.398-3.015,4.279-2.544   c10.306,2.62,20.922,4.039,31.552,4.215c0.003,0,0.006,0,0.01,0h11.544c0.004,0,0.008,0,0.01,0   c10.631-0.177,21.246-1.595,31.553-4.215c0.908-0.234,1.857-0.094,2.664,0.385c0.809,0.48,1.381,1.247,1.613,2.158   C92.828,43.046,91.688,44.965,89.809,45.443z"></path></g></svg>